<svg width="29" height="29" viewBox="0 0 29 29" fill="none" xmlns="http://www.w3.org/2000/svg"><path d="M21.6667 7H21.68M7.66667 1H21C24.6819 1 27.6667 3.98477 27.6667 7.66667V21C27.6667 24.6819 24.6819 27.6667 21 27.6667H7.66667C3.98477 27.6667 1 24.6819 1 21V7.66667C1 3.98477 3.98477 1 7.66667 1ZM19.6667 13.4933C19.8312 14.603 19.6417 15.7363 19.125 16.732C18.6083 17.7278 17.7909 18.5352 16.7888 19.0396C15.7868 19.5439 14.6513 19.7195 13.5437 19.5412C12.4362 19.363 11.413 18.8401 10.6198 18.0469C9.82656 17.2537 9.30364 16.2305 9.12542 15.123C8.9472 14.0154 9.12275 12.8799 9.6271 11.8778C10.1314 10.8758 10.9389 10.0583 11.9346 9.54165C12.9304 9.02499 14.0637 8.83545 15.1733 9C16.3052 9.16785 17.3531 9.69528 18.1623 10.5044C18.9714 11.3135 19.4988 12.3614 19.6667 13.4933Z" stroke="white" stroke-width="2" stroke-linecap="round" stroke-linejoin="round"/></svg>
