<svg width="45" height="41" viewBox="0 0 45 41" fill="none" xmlns="http://www.w3.org/2000/svg">
<g filter="url(#filter0_d_38_114)">
<path d="M38.5059 10.9672C38.3029 10.1564 37.8897 9.41357 37.3077 8.81366C36.7258 8.21375 35.9959 7.77803 35.1917 7.55051C32.2534 6.83301 20.5 6.83301 20.5 6.83301C20.5 6.83301 8.74671 6.83301 5.80837 7.61884C5.00417 7.84636 4.27425 8.28209 3.69234 8.88199C3.11043 9.4819 2.69714 10.2247 2.49421 11.0355C1.95645 14.0175 1.6934 17.0425 1.70837 20.0726C1.68921 23.1255 1.95227 26.1736 2.49421 29.178C2.71793 29.9636 3.14048 30.6782 3.72104 31.2527C4.30159 31.8273 5.02053 32.2424 5.80837 32.458C8.74671 33.2438 20.5 33.2438 20.5 33.2438C20.5 33.2438 32.2534 33.2438 35.1917 32.458C35.9959 32.2305 36.7258 31.7948 37.3077 31.1949C37.8897 30.5949 38.3029 29.8521 38.5059 29.0413C39.0395 26.0818 39.3025 23.0798 39.2917 20.0726C39.3109 17.0197 39.0478 13.9716 38.5059 10.9672Z" stroke="white" stroke-width="2" stroke-linecap="round" stroke-linejoin="round"/>
<path d="M16.6563 25.6588L26.4792 20.0726L16.6563 14.4863V25.6588Z" stroke="white" stroke-width="2" stroke-linecap="round" stroke-linejoin="round"/>
</g>
<defs>
<filter id="filter0_d_38_114" x="-4" y="0" width="49" height="49" filterUnits="userSpaceOnUse" color-interpolation-filters="sRGB">
<feFlood flood-opacity="0" result="BackgroundImageFix"/>
<feColorMatrix in="SourceAlpha" type="matrix" values="0 0 0 0 0 0 0 0 0 0 0 0 0 0 0 0 0 0 127 0" result="hardAlpha"/>
<feOffset dy="4"/>
<feGaussianBlur stdDeviation="2"/>
<feComposite in2="hardAlpha" operator="out"/>
<feColorMatrix type="matrix" values="0 0 0 0 0 0 0 0 0 0 0 0 0 0 0 0 0 0 0.25 0"/>
<feBlend mode="normal" in2="BackgroundImageFix" result="effect1_dropShadow_38_114"/>
<feBlend mode="normal" in="SourceGraphic" in2="effect1_dropShadow_38_114" result="shape"/>
</filter>
</defs>
</svg>
